<svg xmlns="http://www.w3.org/2000/svg" width="100%" height="100%" viewBox="0 0 1200 340"><defs><linearGradient id="bgGradient" x1="0%" x2="100%" y1="0%" y2="100%"><stop offset="0%" stop-color="#0b0f19"/><stop offset="50%" stop-color="#111827"/><stop offset="100%" stop-color="#1e1b4b"/></linearGradient><linearGradient id="titleGradient" x1="0%" x2="100%" y1="0%" y2="0%"><stop offset="0%" stop-color="#38bdf8"/><stop offset="50%" stop-color="#818cf8"/><stop offset="100%" stop-color="#c084fc"/></linearGradient><linearGradient id="accentGlow" x1="0%" x2="100%" y1="0%" y2="100%"><stop offset="0%" stop-color="#38bdf8" stop-opacity=".4"/><stop offset="100%" stop-color="#a855f7" stop-opacity=".1"/></linearGradient><filter id="glow" width="140%" height="140%" x="-20%" y="-20%"><feGaussianBlur result="blur" stdDeviation="12"/><feComposite in="SourceGraphic" in2="blur" operator="over"/></filter></defs><style>@keyframes pulseOrb{0%{transform:scale(1) translate(0,0);opacity:.3}50%{transform:scale(1.15) translate(-10px,15px);opacity:.6}}@keyframes floatBox{0%{transform:translateY(0) rotate(0deg)}50%{transform:translateY(-12px) rotate(3deg)}}@keyframes shimmerLine{0%{stroke-dashoffset:600}}.animated-orb-1,.animated-orb-2{animation:pulseOrb 8s ease-in-out infinite;transform-origin:center}.animated-orb-2{animation:pulseOrb 11s ease-in-out infinite reverse}.floating-icon{animation:floatBox 6s ease-in-out infinite}.floating-icon-delayed{animation:floatBox 7s ease-in-out infinite 2s}.tech-line{stroke-dasharray:200;animation:shimmerLine 12s linear infinite}</style><rect width="1200" height="340" fill="url(#bgGradient)" rx="16"/><g id="background-animations"><circle cx="1050" cy="80" r="180" fill="url(#accentGlow)" class="animated-orb-1"/><circle cx="150" cy="280" r="220" fill="url(#accentGlow)" class="animated-orb-2"/><g stroke="#334155" stroke-opacity=".3" stroke-width=".75"><line x1="0" x2="1200" y1="60" y2="60"/><line x1="0" x2="1200" y1="140" y2="140"/><line x1="0" x2="1200" y1="220" y2="220"/><line x1="0" x2="1200" y1="300" y2="300"/><line x1="200" x2="200" y1="0" y2="340"/><line x1="500" x2="500" y1="0" y2="340"/><line x1="800" x2="800" y1="0" y2="340"/><line x1="1000" x2="1000" y1="0" y2="340"/></g><path fill="none" stroke="#38bdf8" stroke-width="2" d="M 850,50 L 950,110 L 1100,110" class="tech-line" opacity=".4"/><path fill="none" stroke="#818cf8" stroke-width="2" d="M 100,280 L 250,220 L 400,280" class="tech-line" opacity=".4"/><g class="floating-icon" opacity=".25"><rect width="64" height="64" x="980" y="140" fill="#38bdf8" rx="12"/><path stroke="#0f172a" stroke-linecap="round" stroke-width="4" d="M 1000 160 L 1024 160 M 1012 148 L 1012 172"/></g><g class="floating-icon-delayed" opacity=".2"><rect width="56" height="56" x="120" y="70" fill="#a855f7" rx="10"/><circle cx="148" cy="98" r="14" fill="none" stroke="#0f172a" stroke-width="4"/></g></g><g id="foreground-content"><g transform="translate(70, 0) translate(0, 50)"><rect width="260" height="32" x="0" y="0" fill="#1e293b" stroke="#38bdf8" stroke-width="1" rx="16"/><text x="130" y="20" fill="#38bdf8" font-family="-apple-system, BlinkMacSystemFont, 'Segoe UI', Roboto, sans-serif" font-size="13" font-weight="600" letter-spacing="1" text-anchor="middle">📦 DEVOPS &amp; REPOSITORY ECOSYSTEM</text></g><text x="0" y="135" fill="url(#titleGradient)" filter="url(#glow)" font-family="-apple-system, BlinkMacSystemFont, 'Segoe UI', Roboto, Helvetica, Arial, sans-serif" font-size="44" font-weight="800" letter-spacing="-.5" transform="translate(70, 0)">Awesome Artifact Repository Manager</text><text x="0" y="178" fill="#94a3b8" font-family="-apple-system, BlinkMacSystemFont, 'Segoe UI', Roboto, Helvetica, Arial, sans-serif" font-size="19" font-weight="400" transform="translate(70, 0)">Curated List of SaaS Products, OCI Registries &amp; Open-Source Package Managers</text><g><g transform="translate(70, 0) translate(0, 220) translate(0, 0)"><rect width="160" height="34" fill="#1e293b" fill-opacity=".8" stroke="#475569" stroke-width="1" rx="8"/><text x="80" y="22" fill="#e2e8f0" font-family="sans-serif" font-size="13" font-weight="500" text-anchor="middle">⚡ Multi-Format Feeds</text></g><g transform="translate(70, 0) translate(0, 220) translate(172, 0)"><rect width="165" height="34" fill="#1e293b" fill-opacity=".8" stroke="#475569" stroke-width="1" rx="8"/><text x="82" y="22" fill="#e2e8f0" font-family="sans-serif" font-size="13" font-weight="500" text-anchor="middle">🛡️ Supply Chain Security</text></g><g transform="translate(70, 0) translate(0, 220) translate(349, 0)"><rect width="160" height="34" fill="#1e293b" fill-opacity=".8" stroke="#475569" stroke-width="1" rx="8"/><text x="80" y="22" fill="#e2e8f0" font-family="sans-serif" font-size="13" font-weight="500" text-anchor="middle">🐳 OCI &amp; Helm Storage</text></g><g transform="translate(70, 0) translate(0, 220) translate(521, 0)"><rect width="150" height="34" fill="#1e293b" fill-opacity=".8" stroke="#475569" stroke-width="1" rx="8"/><text x="75" y="22" fill="#e2e8f0" font-family="sans-serif" font-size="13" font-weight="500" text-anchor="middle">🌟 Open Source &amp; SaaS</text></g></g><text x="0" y="295" fill="#64748b" font-family="sans-serif" font-size="13" transform="translate(70, 0)">Updated continuously • Managed for Platform Engineers &amp; DevOps Teams</text></g></svg>